<svg xmlns="http://www.w3.org/2000/svg" viewBox="0 0 47.64 35"><defs><style>.cls-1{fill:#fff;}</style></defs><title>Fichier 1</title><g id="Calque_2" data-name="Calque 2"><g id="Header"><path class="cls-1" d="M30.14,2a15.5,15.5,0,1,1,0,31H17.5a15.5,15.5,0,0,1,0-31H30.14m0-2H17.5a17.5,17.5,0,0,0,0,35H30.14a17.5,17.5,0,1,0,0-35Z"/><path class="cls-1" d="M15.12,10h17.4a1.8,1.8,0,0,1,1.8,1.8v0a0,0,0,0,1,0,0h-21a0,0,0,0,1,0,0v0a1.8,1.8,0,0,1,1.8-1.8Z"/><path class="cls-1" d="M15.12,23.2h17.4a1.8,1.8,0,0,1,1.8,1.8v0a0,0,0,0,1,0,0h-21a0,0,0,0,1,0,0v0A1.8,1.8,0,0,1,15.12,23.2Z"/><path class="cls-1" d="M15.12,16.6h17.4a1.8,1.8,0,0,1,1.8,1.8v0a0,0,0,0,1,0,0h-21a0,0,0,0,1,0,0v0a1.8,1.8,0,0,1,1.8-1.8Z"/></g></g></svg>